<?xml version="1.0" encoding="UTF-8"?>
<svg width="15px" height="15px" viewBox="0 0 15 15" version="1.1" xmlns="http://www.w3.org/2000/svg" xmlns:xlink="http://www.w3.org/1999/xlink">
    <title>cross dark</title>
    <g id="Symbols" stroke="none" stroke-width="1" fill="none" fill-rule="evenodd">
        <g id="ICON/cross/black" fill="#70838B" fill-rule="nonzero">
            <path d="M8.82658273,7.50015635 L14.7251464,1.6013467 C15.0916179,1.23517272 15.0916179,0.641039004 14.7251464,0.274865017 C14.358675,-0.0916216723 13.7651915,-0.0916216723 13.3987201,0.274865017 L7.50015634,6.17367466 L1.60127994,0.274865017 C1.23480853,-0.0916216723 0.641324967,-0.0916216723 0.274853557,0.274865017 C-0.0916178525,0.641039004 -0.0916178525,1.23517272 0.274853557,1.6013467 L6.17372996,7.50015635 L0.274853557,13.398966 C-0.0916178525,13.76514 -0.0916178525,14.3592737 0.274853557,14.7254477 C0.458089262,14.9083783 0.69823435,15 0.938066749,15 C1.17789915,15 1.41804424,14.9083783 1.60127994,14.725135 L7.50015634,8.82632534 L13.3987201,14.725135 C13.5819558,14.9083783 13.8221009,15 14.0619333,15 C14.3017657,15 14.5419107,14.9083783 14.7251464,14.725135 C15.0916179,14.358961 15.0916179,13.7648273 14.7251464,13.3986533 L8.82658273,7.50015635 Z" id="cross-dark"></path>
        </g>
    </g>
</svg>