<?xml version="1.0" encoding="UTF-8"?>
<svg width="15px" height="15px" viewBox="0 0 15 15" version="1.1" xmlns="http://www.w3.org/2000/svg" xmlns:xlink="http://www.w3.org/1999/xlink">
    <title>Shape</title>
    <g id="Symbols" stroke="none" stroke-width="1" fill="none" fill-rule="evenodd">
        <g id="icon/edit" fill="#2F9AD3" fill-rule="nonzero">
            <path d="M10.2162048,0.531552339 L7.22762103,3.50081328 L2.24266531,8.48753388 L2.08687672,8.64622788 C2.08687672,8.64622788 1.58594014,9.15038697 0.454922773,12.7991212 C0.446990905,12.8246305 0.439114895,12.8499725 0.431127168,12.8758167 C0.410962349,12.941181 0.390574096,13.0076059 0.370018269,13.0749239 C0.351808487,13.1344271 0.333375272,13.1951584 0.314886199,13.2562805 C0.299301754,13.3078016 0.283829025,13.3587645 0.268021147,13.411402 C0.232160165,13.5308552 0.195852318,13.6524294 0.158818314,13.7779668 C0.0775445942,14.0535462 -0.120975543,14.6749815 0.10351867,14.8999329 C0.319690006,15.116623 0.948095055,14.9260004 1.2230851,14.8445044 C1.34776067,14.8075521 1.46858201,14.7713254 1.58722488,14.7355453 C1.6420218,14.7190228 1.69514298,14.7028352 1.74871102,14.686536 C1.80630085,14.6690088 1.86361139,14.6515932 1.91974891,14.6343451 C1.990633,14.6125756 2.06051164,14.5910852 2.12921726,14.5697623 C2.14971723,14.5633989 2.16982619,14.5570913 2.19015858,14.5507837 C5.66409341,13.4698448 6.28775051,12.9625598 6.33958694,12.916174 C6.34148612,12.9144622 6.39654371,12.8594617 6.50475972,12.7511725 L11.5006078,7.77522496 L14.4891357,4.8059082 C14.8824335,4.41249442 10.6094468,0.138082741 10.2162048,0.531552339 Z M5.77039161,12.2680014 C5.76603467,12.2709598 5.7601137,12.2748113 5.75385758,12.2787745 C5.75039437,12.2810073 5.746205,12.2836308 5.74207149,12.2861984 C5.73788213,12.288822 5.73330175,12.2916687 5.72844209,12.2946271 C5.724141,12.2972507 5.71967234,12.29993 5.71486854,12.3028326 C5.54902546,12.4020233 5.06233273,12.6579544 3.88115467,13.0852504 C3.743129,13.1351528 3.59281451,13.1880694 3.43535017,13.2426048 L1.75625188,11.562949 C1.81099294,11.4044224 1.8640024,11.2530965 1.91410723,11.1141067 C2.34075236,9.92878583 2.5966389,9.44098177 2.69534038,9.27547782 C2.69774229,9.27151465 2.69992076,9.26788641 2.70209923,9.26431398 C2.70556244,9.25862042 2.70880222,9.25331759 2.71181856,9.24846132 C2.71422046,9.2446098 2.71673408,9.24059081 2.7188567,9.23729748 C2.72282263,9.23110155 2.72667685,9.22518471 2.72963733,9.22077499 L2.85252543,9.09763782 L5.89596091,12.1421291 L5.77039161,12.2680014 Z M14.7050267,3.14463091 L11.8564247,0.295060334 C11.4631269,-0.0983534448 10.8255053,-0.0983534448 10.4321516,0.295060334 L9.72007096,1.00748089 C9.32677318,1.40089467 9.32677318,2.03879658 9.72007096,2.43221036 L12.5686171,5.28178093 C12.961859,5.67519471 13.5995924,5.67519471 13.9928901,5.28178093 L14.7050267,4.5694162 C15.0983244,4.1759466 15.0983244,3.53804469 14.7050267,3.14463091 Z" id="Shape"></path>
        </g>
    </g>
</svg>