<?xml version="1.0" encoding="UTF-8"?>
<svg width="24px" height="24px" viewBox="0 0 24 24" version="1.1" xmlns="http://www.w3.org/2000/svg" xmlns:xlink="http://www.w3.org/1999/xlink">
    <!-- Generator: Sketch 63 (92445) - https://sketch.com -->
    <title>00 Fragments / Icons / add_pdf</title>
    <desc>Created with Sketch.</desc>
    <g id="00-Fragments-/-Icons-/-add_pdf" stroke="none" stroke-width="1" fill="none" fill-rule="evenodd">
        <g id="note_add_PDF-24px">
            <g>
                <polygon id="Path" points="0 0 24 0 24 24 0 24"></polygon>
                <path d="M12.9230769,8.22377622 C12.9230769,8.72727273 13.4265734,9.23076923 13.9300699,9.23076923 L18.4615385,9.23076923 L12.9230769,3.69230769 L12.9230769,8.22377622 Z" id="Path"></path>
                <g id="Group" transform="translate(3.692308, 1.846154)">
                    <path d="M8.82692308,6.09230769 C8.82692308,6.6 9.31730769,7.10769231 9.80769231,7.10769231 L14.2211538,7.10769231 L8.82692308,1.52307692 L8.82692308,6.09230769 Z" id="Path"></path>
                    <path d="M15.1038462,5.48307692 L10.3961538,0.609230769 C10.0038462,0.203076923 9.51346154,0 9.02307692,0 L1.96153846,0 C0.882692308,0 0,0.913846154 0,2.03076923 L0,18.2769231 C0,19.3938462 0.882692308,20.3076923 1.96153846,20.3076923 L13.7307692,20.3076923 C14.8096154,20.3076923 15.6923077,19.3938462 15.6923077,18.2769231 L15.6923077,6.90461538 C15.6923077,6.39692308 15.4961538,5.88923077 15.1038462,5.48307692 Z M11.1807692,15.5353846 C10.8865385,15.5353846 10.2,15.1292308 9.61153846,14.6215385 C8.925,14.7230769 7.94423077,15.0276923 7.25769231,15.3323077 C6.57115385,16.8553846 5.59038462,17.6676923 4.90384615,17.6676923 C4.41346154,17.6676923 3.825,17.3630769 3.825,16.8553846 C3.825,16.1446154 4.51153846,15.84 5.68846154,15.2307692 C5.88461538,15.1292308 6.17884615,15.0276923 6.47307692,14.8246154 C6.57115385,14.8246154 6.66923077,14.7230769 6.66923077,14.7230769 C6.76730769,14.52 6.86538462,14.2153846 6.96346154,14.0123077 C7.15961538,13.4030769 7.25769231,12.9969231 7.45384615,12.4892308 C6.86538462,11.7784615 6.57115385,11.0676923 6.57115385,10.56 C6.57115385,9.34153846 7.15961538,9.13846154 7.65,9.13846154 C8.23846154,9.13846154 8.72884615,9.34153846 8.72884615,10.56 C8.72884615,10.8646154 8.63076923,11.3723077 8.23846154,12.3876923 C8.43461538,12.5907692 8.63076923,12.8953846 8.925,13.2 C9.12115385,13.4030769 9.41538462,13.7076923 9.70961538,13.9107692 C10.2,13.8092308 10.5923077,13.8092308 10.6903846,13.8092308 C11.1807692,13.8092308 12.0634615,13.8092308 12.0634615,14.6215385 C12.1615385,15.0276923 12.0634615,15.5353846 11.1807692,15.5353846 Z M9.80769231,7.10769231 C9.31730769,7.10769231 8.82692308,6.6 8.82692308,6.09230769 L8.82692308,1.52307692 L14.2211538,7.10769231 L9.80769231,7.10769231 Z" id="Shape" fill="#565294" fill-rule="nonzero"></path>
                    <path d="M8.04230769,13.2 C7.94423077,13.5046154 7.84615385,13.9107692 7.65,14.3169231 C7.65,14.4184615 7.65,14.4184615 7.55192308,14.52 C7.94423077,14.4184615 8.43461538,14.2153846 8.82692308,14.1138462 C8.63076923,13.9107692 8.43461538,13.8092308 8.43461538,13.7076923 C8.33653846,13.5046154 8.23846154,13.4030769 8.04230769,13.2 Z" id="Path" fill="#565294" fill-rule="nonzero"></path>
                </g>
            </g>
        </g>
    </g>
</svg>