<?xml version="1.0" encoding="UTF-8"?>
<svg width="24px" height="24px" viewBox="0 0 24 24" version="1.1" xmlns="http://www.w3.org/2000/svg" xmlns:xlink="http://www.w3.org/1999/xlink">
    <!-- Generator: Sketch 63 (92445) - https://sketch.com -->
    <title>00 Fragments / Icons / add_excel</title>
    <desc>Created with Sketch.</desc>
    <g id="00-Fragments-/-Icons-/-add_excel" stroke="none" stroke-width="1" fill="none" fill-rule="evenodd">
        <g id="note_add_EXCEL24px">
            <g>
                <polygon id="Path" points="0 0 24 0 24 24 0 24"></polygon>
                <path d="M12.9230769,8.22377622 C12.9230769,8.72727273 13.4265734,9.23076923 13.9300699,9.23076923 L18.4615385,9.23076923 L12.9230769,3.69230769 L12.9230769,8.22377622 Z" id="Path"></path>
                <g id="Group" transform="translate(4.615385, 1.846154)">
                    <path d="M8.82692308,6.09230769 C8.82692308,6.6 9.31730769,7.10769231 9.80769231,7.10769231 L14.2211538,7.10769231 L8.82692308,1.52307692 L8.82692308,6.09230769 Z" id="Path"></path>
                    <path d="M15.1038462,5.48307692 L10.3961538,0.609230769 C10.0038462,0.203076923 9.51346154,0 9.02307692,0 L1.96153846,0 C0.882692308,0 0,0.913846154 0,2.03076923 L0,18.2769231 C0,19.3938462 0.882692308,20.3076923 1.96153846,20.3076923 L13.7307692,20.3076923 C14.8096154,20.3076923 15.6923077,19.3938462 15.6923077,18.2769231 L15.6923077,6.90461538 C15.6923077,6.39692308 15.4961538,5.88923077 15.1038462,5.48307692 Z M10.5923077,16.8553846 C10.4942308,16.9569231 10.3961538,17.0584615 10.2,17.0584615 L9.21923077,17.0584615 C9.12115385,17.0584615 8.925,16.9569231 8.82692308,16.8553846 L7.94423077,15.3323077 C7.74807692,15.0276923 7.65,14.8246154 7.55192308,14.6215385 C7.45384615,14.8246154 7.35576923,15.0276923 7.15961538,15.3323077 L6.375,16.8553846 C6.27692308,16.9569231 6.17884615,17.0584615 5.98269231,17.0584615 L5.00192308,17.0584615 C4.90384615,17.0584615 4.70769231,16.9569231 4.60961538,16.8553846 C4.51153846,16.7538462 4.51153846,16.5507692 4.60961538,16.4492308 L6.47307692,13.2 L4.90384615,10.0523077 C4.80576923,9.95076923 4.80576923,9.74769231 4.90384615,9.64615385 C5.00192308,9.54461538 5.1,9.44307692 5.29615385,9.44307692 L6.27692308,9.44307692 C6.375,9.44307692 6.57115385,9.54461538 6.66923077,9.64615385 L7.55192308,11.2707692 C7.65,11.4738462 7.74807692,11.5753846 7.84615385,11.7784615 C7.94423077,11.6769231 8.04230769,11.4738462 8.14038462,11.2707692 L9.02307692,9.64615385 C9.12115385,9.54461538 9.21923077,9.44307692 9.41538462,9.44307692 L10.3961538,9.44307692 C10.5923077,9.44307692 10.6903846,9.54461538 10.7884615,9.64615385 C10.8865385,9.74769231 10.8865385,9.95076923 10.7884615,10.0523077 L8.925,13.0984615 L10.8865385,16.3476923 C10.6903846,16.5507692 10.6903846,16.7538462 10.5923077,16.8553846 Z M9.80769231,7.10769231 C9.31730769,7.10769231 8.82692308,6.6 8.82692308,6.09230769 L8.82692308,1.52307692 L14.2211538,7.10769231 L9.80769231,7.10769231 Z" id="Shape" fill="#565294" fill-rule="nonzero"></path>
                </g>
            </g>
        </g>
    </g>
</svg>