<svg xmlns="http://www.w3.org/2000/svg" width="16" height="16" viewBox="0 0 16 16">
    <g fill="none" fill-rule="evenodd">
        <path fill="#FBBC05" d="M3.276 8c0-.508.084-.995.235-1.452L.874 4.535A7.819 7.819 0 0 0 .071 8c0 1.246.29 2.42.802 3.463l2.635-2.017A4.628 4.628 0 0 1 3.276 8"/>
        <path fill="#EA4335" d="M7.905 3.378c1.103 0 2.1.39 2.884 1.03l2.278-2.275C11.68.924 9.898.178 7.905.178a7.81 7.81 0 0 0-7.03 4.357L3.51 6.548a4.616 4.616 0 0 1 4.394-3.17"/>
        <path fill="#34A853" d="M7.905 12.622a4.616 4.616 0 0 1-4.394-3.17L.874 11.465a7.81 7.81 0 0 0 7.03 4.357c1.911 0 3.735-.678 5.104-1.95l-2.502-1.934c-.706.445-1.595.684-2.601.684"/>
        <path fill="#4285F4" d="M15.382 8c0-.462-.071-.96-.178-1.422h-7.3V9.6h4.202c-.21 1.03-.782 1.823-1.6 2.338l2.502 1.935c1.438-1.335 2.374-3.323 2.374-5.873"/>
    </g>
</svg>
